<svg width="114" height="114" viewBox="0 0 114 114" fill="none" xmlns="http://www.w3.org/2000/svg">
<circle cx="57" cy="57" r="57" fill="#FD4755"/>
<path fill-rule="evenodd" clip-rule="evenodd" d="M72.9762 33.3767C74.8116 31.5411 77.7878 31.5411 79.6235 33.3767C81.4589 35.2121 81.4589 38.1883 79.6235 40.024L63.1473 56.5L79.6235 72.976C81.4589 74.8117 81.4589 77.7879 79.6235 79.6233C77.7878 81.4589 74.8116 81.4589 72.9762 79.6233L56.5 63.1472L40.0238 79.6233C38.1881 81.4589 35.2119 81.4589 33.3765 79.6233C31.5412 77.7879 31.5412 74.8117 33.3765 72.976L49.8527 56.5L33.3765 40.024C31.5412 38.1883 31.5412 35.2121 33.3765 33.3767C35.2122 31.5411 38.1884 31.5411 40.0238 33.3767L56.5 49.8528L72.9762 33.3767Z" fill="#EFEFEF"/>
</svg>
