<svg width="36" height="36" viewBox="0 0 36 36" fill="none" xmlns="http://www.w3.org/2000/svg">
<path d="M13.8457 13.5H10.8003C9.12014 13.5 8.27943 13.5 7.6377 13.827C7.07321 14.1146 6.6146 14.5732 6.32698 15.1377C6 15.7794 6 16.6201 6 18.3003V26.7003C6 28.3805 6 29.2201 6.32698 29.8618C6.6146 30.4263 7.07321 30.8857 7.6377 31.1733C8.2788 31.5 9.11853 31.5 10.7954 31.5H25.2046C26.8815 31.5 27.72 31.5 28.3611 31.1733C28.9256 30.8857 29.3857 30.4263 29.6733 29.8618C30 29.2207 30 28.3822 30 26.7054V18.2954C30 16.6185 30 15.7788 29.6733 15.1377C29.3857 14.5732 28.9256 14.1146 28.3611 13.827C27.7194 13.5 26.8804 13.5 25.2003 13.5H22.1534M13.8457 13.5H22.1534M13.8457 13.5C13.6545 13.5 13.5 13.345 13.5 13.1538V9C13.5 6.51472 15.5147 4.5 18 4.5C20.4853 4.5 22.5 6.51472 22.5 9V13.1538C22.5 13.345 22.3446 13.5 22.1534 13.5" stroke="#422B23" stroke-width="2" stroke-linecap="round" stroke-linejoin="round"/>
<circle cx="18" cy="22" r="2" fill="#422B23"/>
<rect x="17" y="23" width="2" height="4" rx="1" fill="#422B23"/>
</svg>
