<svg width="20" height="17" viewBox="0 0 20 17" fill="none" xmlns="http://www.w3.org/2000/svg">
<path d="M17 8C17 4.13401 13.866 1 10 1C6.13401 1 3 4.13401 3 8M14 11.5V13.5C14 13.9647 14 14.197 14.0384 14.3902C14.1962 15.1836 14.8165 15.8041 15.6099 15.9619C15.8031 16.0003 16.0353 16.0003 16.5 16.0003C16.9647 16.0003 17.197 16.0003 17.3902 15.9619C18.1836 15.8041 18.8036 15.1836 18.9614 14.3902C18.9999 14.197 19 13.9647 19 13.5V11.5C19 11.0353 18.9999 10.8026 18.9614 10.6094C18.8036 9.81599 18.1836 9.19624 17.3902 9.03843C17.197 9 16.9647 9 16.5 9C16.0353 9 15.8031 9 15.6099 9.03843C14.8165 9.19624 14.1962 9.81599 14.0384 10.6094C14 10.8026 14 11.0353 14 11.5ZM6 11.5V13.5C6 13.9647 5.99986 14.197 5.96143 14.3902C5.80361 15.1836 5.18352 15.8041 4.39014 15.9619C4.19694 16.0003 3.96469 16.0003 3.50004 16.0003C3.03539 16.0003 2.80306 16.0003 2.60986 15.9619C1.81648 15.8041 1.19624 15.1836 1.03843 14.3902C1 14.197 1 13.9647 1 13.5V11.5C1 11.0353 1 10.8026 1.03843 10.6094C1.19624 9.81599 1.81648 9.19624 2.60986 9.03843C2.80306 9 3.03539 9 3.50004 9C3.9647 9 4.19694 9 4.39014 9.03843C5.18352 9.19624 5.80361 9.81599 5.96143 10.6094C5.99986 10.8026 6 11.0353 6 11.5Z" stroke="#A47764" stroke-width="2" stroke-linecap="round" stroke-linejoin="round"/>
</svg>
