<svg width="24" height="24" viewBox="0 0 24 24" fill="none" xmlns="http://www.w3.org/2000/svg">
<g clip-path="url(#clip0_1_614)">
<path d="M22.5303 10.7237L20.7898 8.6815C20.6575 8.52678 20.5777 8.33405 20.562 8.13109L20.3484 5.45654C20.3128 4.98974 20.1112 4.55111 19.7802 4.22007C19.4492 3.88903 19.0105 3.68746 18.5437 3.65186L15.8692 3.43848C15.6661 3.42268 15.4732 3.34284 15.3184 3.21043L13.2763 1.47011C12.9211 1.16519 12.4684 0.997559 12.0002 0.997559C11.532 0.997559 11.0793 1.16519 10.7241 1.47011L8.68212 3.2102C8.52733 3.34268 8.33447 3.42256 8.13134 3.43834L5.45674 3.65158C4.98992 3.68718 4.55126 3.88875 4.22019 4.21978C3.88911 4.55081 3.68749 4.98944 3.65182 5.45626L3.43868 8.13072C3.42281 8.3338 3.34287 8.52661 3.2104 8.68136L1.47017 10.7237C1.16521 11.079 0.997559 11.5317 0.997559 11.9999C0.997559 12.4681 1.16521 12.9209 1.47017 13.2761L3.2104 15.3184C3.34279 15.4731 3.42264 15.6659 3.43845 15.8689L3.65206 18.5435C3.68761 19.0103 3.88915 19.449 4.2202 19.7801C4.55124 20.1112 4.9899 20.3128 5.45674 20.3484L8.13106 20.5615C8.33423 20.5775 8.52711 20.6575 8.68207 20.7898L10.7241 22.5301C11.0793 22.835 11.532 23.0027 12.0002 23.0027C12.4684 23.0027 12.9211 22.835 13.2763 22.5301L15.3186 20.7898C15.4733 20.6574 15.6661 20.5776 15.8691 20.5618L18.5437 20.3482C19.0105 20.3126 19.4492 20.1111 19.7803 19.78C20.1114 19.449 20.313 19.0103 20.3486 18.5435L20.5617 15.8692C20.5777 15.666 20.6577 15.4731 20.79 15.3182L22.5303 13.2762C22.8352 12.9209 23.0029 12.4682 23.0029 12C23.0029 11.5318 22.8352 11.079 22.5303 10.7237ZM21.769 12.6277L20.029 14.6695C19.7596 14.9842 19.5971 15.3763 19.5649 15.7893L19.3518 18.4641C19.3342 18.6936 19.2351 18.9093 19.0723 19.072C18.9095 19.2348 18.6938 19.3339 18.4643 19.3513L15.7895 19.5649C15.3767 19.597 14.9847 19.7594 14.6701 20.0286L12.6279 21.7688C12.4532 21.9188 12.2305 22.0013 12.0002 22.0013C11.7699 22.0013 11.5473 21.9188 11.3726 21.7688L9.33082 20.0288C9.01606 19.7594 8.62394 19.5969 8.21093 19.5647L5.53615 19.3516C5.30662 19.334 5.09096 19.2349 4.92821 19.0721C4.76546 18.9093 4.66638 18.6936 4.6489 18.4641L4.43529 15.7893C4.4032 15.3765 4.24085 14.9845 3.97165 14.6699L2.23146 12.6277C2.08141 12.453 1.99891 12.2304 1.99891 12.0001C1.99891 11.7698 2.08141 11.5471 2.23146 11.3724L3.97146 9.33048C4.2408 9.01578 4.40329 8.6237 4.43553 8.21073L4.64867 5.53595C4.66625 5.30643 4.76541 5.09078 4.92819 4.92802C5.09097 4.76525 5.30663 4.66612 5.53615 4.64856L8.2107 4.43518C8.62364 4.40303 9.0157 4.24052 9.33031 3.97112L11.3725 2.23126C11.5473 2.08133 11.7699 1.99891 12.0002 1.99891C12.2305 1.99891 12.4531 2.08133 12.6279 2.23126L14.6699 3.97164C14.9846 4.24088 15.3766 4.40326 15.7895 4.43537L18.4643 4.64856C18.6938 4.66609 18.9094 4.76522 19.0722 4.92799C19.2349 5.09077 19.334 5.30644 19.3515 5.53595L19.5651 8.21064C19.5972 8.6235 19.7595 9.01551 20.0288 9.33015L21.769 11.3724C21.919 11.5471 22.0015 11.7698 22.0015 12.0001C22.0015 12.2304 21.919 12.453 21.769 12.6277Z" fill="#A47764"/>
<path d="M10.5 9.5H9.25002C9.1174 9.5 8.99022 9.55268 8.89645 9.64645C8.80268 9.74022 8.75 9.8674 8.75 10V14C8.75128 14.1318 8.80452 14.2577 8.89814 14.3504C8.99177 14.4432 9.11822 14.4952 9.24999 14.4952C9.38177 14.4952 9.50821 14.4432 9.60184 14.3504C9.69547 14.2577 9.74871 14.1318 9.74998 14V12.7594L11.1237 14.3294C11.1669 14.3793 11.2194 14.4201 11.2784 14.4495C11.3373 14.479 11.4015 14.4965 11.4673 14.501C11.533 14.5056 11.599 14.4971 11.6614 14.476C11.7239 14.455 11.7816 14.4218 11.8312 14.3784C11.8807 14.335 11.9213 14.2822 11.9504 14.2231C11.9795 14.164 11.9966 14.0997 12.0008 14.0339C12.005 13.9682 11.9961 13.9022 11.9748 13.8399C11.9534 13.7776 11.9199 13.7201 11.8762 13.6708L10.8215 12.4654C11.183 12.3864 11.5025 12.1765 11.7187 11.8762C11.9348 11.5759 12.0324 11.2062 11.9925 10.8383C11.9526 10.4705 11.7781 10.1303 11.5026 9.88325C11.2272 9.6362 10.8701 9.49971 10.5 9.5ZM10.5 11.5H9.75003V10.5H10.5C10.5661 10.4993 10.6316 10.5118 10.6929 10.5366C10.7541 10.5615 10.8098 10.5982 10.8567 10.6447C10.9037 10.6912 10.9409 10.7465 10.9664 10.8075C10.9918 10.8685 11.0049 10.9339 11.0049 11C11.0049 11.066 10.9918 11.1315 10.9664 11.1924C10.9409 11.2534 10.9037 11.3088 10.8567 11.3552C10.8098 11.4017 10.7541 11.4385 10.6929 11.4633C10.6316 11.4881 10.5661 11.5006 10.5 11.5V11.5Z" fill="#A47764"/>
<path d="M14.75 10.5C14.8818 10.4987 15.0078 10.4455 15.1005 10.3518C15.1932 10.2582 15.2452 10.1318 15.2452 9.99999C15.2452 9.86822 15.1932 9.74177 15.1005 9.64814C15.0078 9.55451 14.8818 9.50128 14.75 9.5H13C12.8674 9.5 12.7402 9.55268 12.6465 9.64645C12.5527 9.74022 12.5 9.8674 12.5 10V14C12.5 14.1326 12.5527 14.2598 12.6465 14.3536C12.7402 14.4473 12.8674 14.5 13 14.5H14.75C14.8818 14.4987 15.0077 14.4455 15.1004 14.3519C15.1932 14.2582 15.2452 14.1318 15.2452 14C15.2452 13.8683 15.1932 13.7418 15.1004 13.6482C15.0077 13.5545 14.8818 13.5013 14.75 13.5H13.5V12.5H14.5C14.5661 12.5006 14.6316 12.4882 14.6928 12.4633C14.7541 12.4385 14.8098 12.4018 14.8567 12.3553C14.9037 12.3088 14.9409 12.2535 14.9663 12.1925C14.9918 12.1315 15.0049 12.0661 15.0049 12C15.0049 11.9339 14.9918 11.8685 14.9663 11.8075C14.9409 11.7466 14.9037 11.6912 14.8567 11.6447C14.8098 11.5982 14.7541 11.5615 14.6928 11.5367C14.6316 11.5118 14.5661 11.4994 14.5 11.5H13.5V10.5H14.75Z" fill="#A47764"/>
<path d="M7.75 9.50002H6.00002C5.8674 9.50002 5.74022 9.5527 5.64645 9.64647C5.55268 9.74025 5.5 9.86743 5.5 10V14C5.50128 14.1318 5.55452 14.2577 5.64814 14.3505C5.74177 14.4432 5.86822 14.4952 5.99999 14.4952C6.13177 14.4952 6.25821 14.4432 6.35184 14.3505C6.44547 14.2577 6.49871 14.1318 6.49998 14V12.5H7.50002C7.63178 12.4987 7.75772 12.4455 7.85045 12.3519C7.94317 12.2583 7.99519 12.1318 7.99519 12C7.99519 11.8683 7.94317 11.7418 7.85045 11.6482C7.75772 11.5546 7.63178 11.5013 7.50002 11.5H6.50003V10.5H7.75005C7.81611 10.5006 7.88165 10.4882 7.94288 10.4633C8.0041 10.4385 8.05979 10.4018 8.10674 10.3553C8.15368 10.3088 8.19095 10.2535 8.21638 10.1925C8.24181 10.1315 8.2549 10.0661 8.2549 10C8.2549 9.93394 8.24181 9.86853 8.21638 9.80755C8.19095 9.74657 8.15368 9.69124 8.10674 9.64474C8.05979 9.59825 8.0041 9.56152 7.94288 9.53668C7.88165 9.51184 7.81611 9.49938 7.75005 9.50002H7.75Z" fill="#A47764"/>
<path d="M18 10.5C18.0661 10.5006 18.1316 10.4882 18.1928 10.4633C18.2541 10.4385 18.3097 10.4018 18.3567 10.3553C18.4036 10.3088 18.4409 10.2535 18.4663 10.1925C18.4918 10.1315 18.5049 10.0661 18.5049 10C18.5049 9.93394 18.4918 9.86853 18.4663 9.80755C18.4409 9.74657 18.4036 9.69124 18.3567 9.64474C18.3097 9.59825 18.2541 9.56152 18.1928 9.53668C18.1316 9.51184 18.0661 9.49938 18 9.50002H16.25C16.1174 9.50002 15.9902 9.5527 15.8965 9.64646C15.8027 9.74022 15.75 9.86739 15.75 9.99999V14C15.75 14.1326 15.8027 14.2598 15.8965 14.3535C15.9902 14.4473 16.1174 14.5 16.25 14.5H18C18.0661 14.5006 18.1316 14.4882 18.1928 14.4633C18.2541 14.4385 18.3097 14.4018 18.3567 14.3553C18.4036 14.3088 18.4409 14.2534 18.4663 14.1925C18.4918 14.1315 18.5049 14.0661 18.5049 14C18.5049 13.9339 18.4918 13.8685 18.4663 13.8075C18.4409 13.7466 18.4036 13.6912 18.3567 13.6447C18.3097 13.5982 18.2541 13.5615 18.1928 13.5367C18.1316 13.5118 18.0661 13.4994 18 13.5H16.75V12.5H17.75C17.8817 12.4987 18.0077 12.4455 18.1004 12.3519C18.1931 12.2583 18.2451 12.1318 18.2451 12C18.2451 11.8683 18.1931 11.7418 18.1004 11.6482C18.0077 11.5546 17.8817 11.5013 17.75 11.5H16.75V10.5H18Z" fill="#A47764"/>
</g>
<defs>
<clipPath id="clip0_1_614">
<rect width="24" height="24" fill="white"/>
</clipPath>
</defs>
</svg>
