<svg width="26" height="30" viewBox="0 0 26 30" fill="none" xmlns="http://www.w3.org/2000/svg">
<path d="M8.8457 10.5H5.80029C4.12014 10.5 3.27943 10.5 2.6377 10.827C2.07321 11.1146 1.6146 11.5732 1.32698 12.1377C1 12.7794 1 13.6201 1 15.3003V23.7003C1 25.3805 1 26.2201 1.32698 26.8618C1.6146 27.4263 2.07321 27.8857 2.6377 28.1733C3.2788 28.5 4.11853 28.5 5.79541 28.5H20.2046C21.8815 28.5 22.72 28.5 23.3611 28.1733C23.9256 27.8857 24.3857 27.4263 24.6733 26.8618C25 26.2207 25 25.3822 25 23.7054V15.2954C25 13.6185 25 12.7788 24.6733 12.1377C24.3857 11.5732 23.9256 11.1146 23.3611 10.827C22.7194 10.5 21.8804 10.5 20.2003 10.5H17.1534M8.8457 10.5H17.1534M8.8457 10.5C8.65453 10.5 8.5 10.345 8.5 10.1538V6C8.5 3.51472 10.5147 1.5 13 1.5C15.4853 1.5 17.5 3.51472 17.5 6V10.1538C17.5 10.345 17.3446 10.5 17.1534 10.5" stroke="#422B23" stroke-width="2" stroke-linecap="round" stroke-linejoin="round"/>
</svg>
