<svg width="31" height="42" viewBox="0 0 31 42" fill="none" xmlns="http://www.w3.org/2000/svg">
<path d="M3.54688 41.5625C2.375 41.5625 1.49219 41.2656 0.898438 40.6719C0.320312 40.0781 0.03125 39.1953 0.03125 38.0234V4.10938C0.03125 2.9375 0.328125 2.0625 0.921875 1.48438C1.51562 0.890625 2.39062 0.59375 3.54688 0.59375H9.17188C10.3281 0.59375 11.2031 0.882812 11.7969 1.46094C12.3906 2.03906 12.6875 2.92187 12.6875 4.10938V38.0234C12.6875 39.1953 12.3906 40.0781 11.7969 40.6719C11.2031 41.2656 10.3281 41.5625 9.17188 41.5625H3.54688ZM21.8281 41.5625C20.6406 41.5625 19.75 41.2656 19.1562 40.6719C18.5781 40.0781 18.2891 39.1953 18.2891 38.0234V4.10938C18.2891 2.9375 18.5859 2.0625 19.1797 1.48438C19.7734 0.890625 20.6562 0.59375 21.8281 0.59375H27.4297C28.6016 0.59375 29.4766 0.882812 30.0547 1.46094C30.6484 2.03906 30.9453 2.92187 30.9453 4.10938V38.0234C30.9453 39.1953 30.6484 40.0781 30.0547 40.6719C29.4766 41.2656 28.6016 41.5625 27.4297 41.5625H21.8281Z" fill="white"/>
</svg>
