<svg width="11" height="13" viewBox="0 0 11 13" fill="none" xmlns="http://www.w3.org/2000/svg">
<path d="M0.651855 10.9556V1.87842C0.651855 1.50179 0.749186 1.22249 0.943848 1.04053C1.13851 0.854329 1.36914 0.76123 1.63574 0.76123C1.87272 0.76123 2.10758 0.828939 2.34033 0.964355L9.91943 5.38232C10.1987 5.54736 10.4019 5.70605 10.5288 5.8584C10.66 6.01074 10.7256 6.19694 10.7256 6.41699C10.7256 6.63281 10.66 6.81901 10.5288 6.97559C10.4019 7.12793 10.1987 7.28451 9.91943 7.44531L2.34033 11.8696C2.10758 12.005 1.87272 12.0728 1.63574 12.0728C1.36914 12.0728 1.13851 11.9797 0.943848 11.7935C0.749186 11.6073 0.651855 11.328 0.651855 10.9556Z" fill="#422B23"/>
</svg>
